<?xml version="1.0" encoding="utf-8"?>
<svg version="1.1" xmlns:xlink="http://www.w3.org/1999/xlink" width="39px" height="39px" xmlns="http://www.w3.org/2000/svg">
  <g transform="matrix(1 0 0 1 -41 -447 )">
    <path d="M 60.5 447  C 71.42 447  80 455.58  80 466.5  C 80 477.42  71.42 486  60.5 486  C 49.58 486  41 477.42  41 466.5  C 41 455.58  49.58 447  60.5 447  Z " fill-rule="nonzero" fill="#ffffff" stroke="none" />
    <path d="M 60.5 447.5  C 71.14 447.5  79.5 455.86  79.5 466.5  C 79.5 477.14  71.14 485.5  60.5 485.5  C 49.86 485.5  41.5 477.14  41.5 466.5  C 41.5 455.86  49.86 447.5  60.5 447.5  Z " stroke-width="1" stroke="#797979" fill="none" />
  </g>
</svg>