<?xml version="1.0" encoding="utf-8"?>
<svg version="1.1" xmlns:xlink="http://www.w3.org/1999/xlink" width="42px" height="42px" xmlns="http://www.w3.org/2000/svg">
  <g transform="matrix(1 0 0 1 -26 -165 )">
    <path d="M 47 165  C 58.76 165  68 174.24  68 186  C 68 197.76  58.76 207  47 207  C 35.24 207  26 197.76  26 186  C 26 174.24  35.24 165  47 165  Z " fill-rule="nonzero" fill="#ffffff" stroke="none" />
    <path d="M 47 165.5  C 58.48 165.5  67.5 174.52  67.5 186  C 67.5 197.48  58.48 206.5  47 206.5  C 35.52 206.5  26.5 197.48  26.5 186  C 26.5 174.52  35.52 165.5  47 165.5  Z " stroke-width="1" stroke="#797979" fill="none" />
  </g>
</svg>