<?xml version="1.0" encoding="utf-8"?>
<svg version="1.1" xmlns:xlink="http://www.w3.org/1999/xlink" width="72px" height="72px" xmlns="http://www.w3.org/2000/svg">
  <g transform="matrix(1 0 0 1 -38 -25 )">
    <path d="M 74 25  C 94.16 25  110 40.84  110 61  C 110 81.16  94.16 97  74 97  C 53.84 97  38 81.16  38 61  C 38 40.84  53.84 25  74 25  Z " fill-rule="nonzero" fill="#ffffff" stroke="none" />
    <path d="M 74 25.5  C 93.88 25.5  109.5 41.12  109.5 61  C 109.5 80.88  93.88 96.5  74 96.5  C 54.12 96.5  38.5 80.88  38.5 61  C 38.5 41.12  54.12 25.5  74 25.5  Z " stroke-width="1" stroke="#797979" fill="none" />
  </g>
</svg>