<?xml version="1.0" encoding="utf-8"?>
<svg version="1.1" xmlns:xlink="http://www.w3.org/1999/xlink" width="40px" height="50px" xmlns="http://www.w3.org/2000/svg">
  <defs>
    <filter x="1216px" y="53px" width="40px" height="50px" filterUnits="userSpaceOnUse" id="filter1">
      <feOffset dx="1" dy="1" in="SourceAlpha" result="shadowOffsetInner" />
      <feGaussianBlur stdDeviation="2.5" in="shadowOffsetInner" result="shadowGaussian" />
      <feComposite in2="shadowGaussian" operator="atop" in="SourceAlpha" result="shadowComposite" />
      <feColorMatrix type="matrix" values="0 0 0 0 0  0 0 0 0 0  0 0 0 0 0  0 0 0 0.698039215686274 0  " in="shadowComposite" />
    </filter>
    <g id="widget2">
      <path d="M 1235 96.0369284683536  C 1229.2 86.4073405959099  1220.5 80.6295878724437  1220.5 71  C 1220.5 65.9857142857143  1223.4 57.5  1235 57.5  C 1246.6 57.5  1249.5 65.9857142857143  1249.5 71  C 1249.5 80.6295878724437  1240.8 86.4073405959099  1235 96.0369284683536  Z " fill-rule="nonzero" fill="#009dd9" stroke="none" />
      <path d="M 1235 97  C 1229 87  1220 81  1220 71  C 1220 65.8  1223 57  1235 57  C 1247 57  1250 65.8  1250 71  C 1250 81  1241 87  1235 97  Z M 1235 95.0738569367072  C 1240.6 85.8146811918198  1249 80.2591757448874  1249 71  C 1249 66.1714285714286  1246.2 58  1235 58  C 1223.8 58  1221 66.1714285714286  1221 71  C 1221 80.2591757448874  1229.4 85.8146811918198  1235 95.0738569367072  Z " fill-rule="nonzero" fill="#ffffff" stroke="none" />
    </g>
  </defs>
  <g transform="matrix(1 0 0 1 -1216 -53 )">
    <use xlink:href="#widget2" filter="url(#filter1)" />
    <use xlink:href="#widget2" />
  </g>
</svg>