<?xml version="1.0" encoding="utf-8"?>
<svg version="1.1" xmlns:xlink="http://www.w3.org/1999/xlink" width="75px" height="73px" xmlns="http://www.w3.org/2000/svg">
  <g transform="matrix(1 0 0 1 -32 -368 )">
    <path d="M 33 379  A 10 10 0 0 1 43 369 L 96 369  A 10 10 0 0 1 106 379 L 106 430  A 10 10 0 0 1 96 440 L 43 440  A 10 10 0 0 1 33 430 L 33 379  Z " fill-rule="nonzero" fill="#ffffff" stroke="none" />
    <path d="M 32.5 379  A 10.5 10.5 0 0 1 43 368.5 L 96 368.5  A 10.5 10.5 0 0 1 106.5 379 L 106.5 430  A 10.5 10.5 0 0 1 96 440.5 L 43 440.5  A 10.5 10.5 0 0 1 32.5 430 L 32.5 379  Z " stroke-width="1" stroke-dasharray="9,4" stroke="#797979" fill="none" stroke-dashoffset="0.5" />
  </g>
</svg>